<?xml version="1.0" encoding="UTF-8" standalone="no"?>
<!-- Created with Inkscape (http://www.inkscape.org/) -->

<svg
   width="16"
   height="16"
   viewBox="0 0 4.2333332 4.2333335"
   version="1.1"
   id="svg3149"
   inkscape:version="1.1.2 (0a00cf5339, 2022-02-04, custom)"
   sodipodi:docname="input_joypad_buttons.svg"
   xmlns:inkscape="http://www.inkscape.org/namespaces/inkscape"
   xmlns:sodipodi="http://sodipodi.sourceforge.net/DTD/sodipodi-0.dtd"
   xmlns="http://www.w3.org/2000/svg"
   xmlns:svg="http://www.w3.org/2000/svg">
  <sodipodi:namedview
     id="namedview3151"
     pagecolor="#505050"
     bordercolor="#eeeeee"
     borderopacity="1"
     inkscape:pageshadow="0"
     inkscape:pageopacity="0"
     inkscape:pagecheckerboard="0"
     inkscape:document-units="mm"
     showgrid="false"
     units="px"
     width="16px"
     inkscape:zoom="1"
     inkscape:cx="-147.5"
     inkscape:cy="-33"
     inkscape:window-width="1916"
     inkscape:window-height="1033"
     inkscape:window-x="0"
     inkscape:window-y="18"
     inkscape:window-maximized="1"
     inkscape:current-layer="layer1" />
  <defs
     id="defs3146" />
  <g
     inkscape:label="Layer 1"
     inkscape:groupmode="layer"
     id="layer1">
    <circle
       style="fill:none;stroke:#ffffff;stroke-width:0.132292;stroke-linecap:round;stroke-linejoin:round;paint-order:stroke markers fill"
       id="path3232"
       cx="2.1390715"
       cy="2.1158254"
       r="1.9390662" />
    <path
       id="circle3332"
       style="fill:#ffffff;fill-opacity:1;stroke:none;stroke-width:0.415121;stroke-linecap:round;stroke-linejoin:round;paint-order:stroke markers fill"
       d="M 8.0839844 1.9121094 A 6.0846091 6.0846091 0 0 0 2 7.9960938 A 6.0846091 6.0846091 0 0 0 8.0839844 14.082031 A 6.0846091 6.0846091 0 0 0 14.169922 7.9960938 A 6.0846091 6.0846091 0 0 0 8.0839844 1.9121094 z M 8 2.9472656 A 1.9588555 1.9588555 0 0 1 9.9589844 4.90625 A 1.9588555 1.9588555 0 0 1 8 6.8652344 A 1.9588555 1.9588555 0 0 1 6.0410156 4.90625 A 1.9588555 1.9588555 0 0 1 8 2.9472656 z M 4.4121094 6.0195312 A 1.9588555 1.9588555 0 0 1 6.3710938 7.9785156 A 1.9588555 1.9588555 0 0 1 4.4121094 9.9375 A 1.9588555 1.9588555 0 0 1 2.453125 7.9785156 A 1.9588555 1.9588555 0 0 1 4.4121094 6.0195312 z M 11.605469 6.0195312 A 1.9588555 1.9588555 0 0 1 13.564453 7.9785156 A 1.9588555 1.9588555 0 0 1 11.605469 9.9375 A 1.9588555 1.9588555 0 0 1 9.6484375 7.9785156 A 1.9588555 1.9588555 0 0 1 11.605469 6.0195312 z M 8 9.3183594 A 1.9588555 1.9588555 0 0 1 9.9589844 11.277344 A 1.9588555 1.9588555 0 0 1 8 13.236328 A 1.9588555 1.9588555 0 0 1 6.0410156 11.277344 A 1.9588555 1.9588555 0 0 1 8 9.3183594 z "
       transform="scale(0.26458333)" />
  </g>
</svg>
