<?xml version="1.0" encoding="UTF-8" standalone="no"?>
<!-- Created with Inkscape (http://www.inkscape.org/) -->

<svg
   width="16"
   height="16"
   viewBox="0 0 4.2333332 4.2333335"
   version="1.1"
   id="svg5"
   inkscape:version="1.1.2 (0a00cf5339, 2022-02-04, custom)"
   sodipodi:docname="refresh.svg"
   xmlns:inkscape="http://www.inkscape.org/namespaces/inkscape"
   xmlns:sodipodi="http://sodipodi.sourceforge.net/DTD/sodipodi-0.dtd"
   xmlns="http://www.w3.org/2000/svg"
   xmlns:svg="http://www.w3.org/2000/svg">
  <sodipodi:namedview
     id="namedview7"
     pagecolor="#505050"
     bordercolor="#eeeeee"
     borderopacity="1"
     inkscape:pageshadow="0"
     inkscape:pageopacity="0"
     inkscape:pagecheckerboard="0"
     inkscape:document-units="mm"
     showgrid="false"
     units="px"
     width="16px"
     inkscape:zoom="1"
     inkscape:cx="-39.509156"
     inkscape:cy="40.991177"
     inkscape:window-width="1916"
     inkscape:window-height="1033"
     inkscape:window-x="0"
     inkscape:window-y="18"
     inkscape:window-maximized="1"
     inkscape:current-layer="layer1" />
  <defs
     id="defs2">
    <marker
       style="overflow:visible"
       id="Arrow1Sstart"
       refX="0.0"
       refY="0.0"
       orient="auto"
       inkscape:stockid="Arrow1Sstart"
       inkscape:isstock="true">
      <path
         transform="scale(0.2) translate(6,0)"
         style="fill-rule:evenodd;fill:context-stroke;stroke:context-stroke;stroke-width:1.0pt"
         d="M 0.0,0.0 L 5.0,-5.0 L -12.5,0.0 L 5.0,5.0 L 0.0,0.0 z "
         id="path1167" />
    </marker>
    <marker
       style="overflow:visible"
       id="Arrow1Mstart"
       refX="0.0"
       refY="0.0"
       orient="auto"
       inkscape:stockid="Arrow1Mstart"
       inkscape:isstock="true">
      <path
         transform="scale(0.4) translate(10,0)"
         style="fill-rule:evenodd;fill:context-stroke;stroke:context-stroke;stroke-width:1.0pt"
         d="M 0.0,0.0 L 5.0,-5.0 L -12.5,0.0 L 5.0,5.0 L 0.0,0.0 z "
         id="path1161" />
    </marker>
    <marker
       style="overflow:visible;"
       id="Arrow1Lend"
       refX="0.0"
       refY="0.0"
       orient="auto"
       inkscape:stockid="Arrow1Lend"
       inkscape:isstock="true">
      <path
         transform="scale(0.8) rotate(180) translate(12.5,0)"
         style="fill-rule:evenodd;fill:context-stroke;stroke:context-stroke;stroke-width:1.0pt;"
         d="M 0.0,0.0 L 5.0,-5.0 L -12.5,0.0 L 5.0,5.0 L 0.0,0.0 z "
         id="path1158" />
    </marker>
    <marker
       style="overflow:visible"
       id="Arrow1Lstart"
       refX="0.0"
       refY="0.0"
       orient="auto"
       inkscape:stockid="Arrow1Lstart"
       inkscape:isstock="true">
      <path
         transform="scale(0.8) translate(12.5,0)"
         style="fill-rule:evenodd;fill:context-stroke;stroke:context-stroke;stroke-width:1.0pt"
         d="M 0.0,0.0 L 5.0,-5.0 L -12.5,0.0 L 5.0,5.0 L 0.0,0.0 z "
         id="path1155" />
    </marker>
  </defs>
  <g
     inkscape:label="Layer 1"
     inkscape:groupmode="layer"
     id="layer1">
    <path
       id="rect7079"
       style="fill:#ffffff;stroke-width:0.264999;stroke-linecap:round;stroke-linejoin:round;paint-order:stroke markers fill"
       d="M 4.1643924,0.53399856 V 2.2663128 H 2.4320782 L 2.7532355,1.9451555 C 2.7079994,0.86758484 2.7948434,0.43092111 1.2702847,0.07072234 c 1.9329299,0.002635 1.6051114,0.32694983 2.5753218,0.78206217 z"
       sodipodi:nodetypes="ccccccc" />
    <path
       id="rect8308"
       style="fill:#ffffff;stroke-width:0.264999;stroke-linecap:round;stroke-linejoin:round;paint-order:stroke markers fill"
       d="M 0.0712921,0.67596177 C 0.79182833,0.30119338 1.3761848,-0.20595174 2.4385031,1.0557068 1.6358372,0.93054141 1.3761756,0.95958478 0.53405528,1.830709 0.59722121,1.4433372 0.62669152,1.1791751 0.72877082,0.94682614 0.6100135,0.70155904 0.30603195,0.74220047 0.0712921,0.67596177 Z"
       sodipodi:nodetypes="ccccc" />
    <path
       id="path9306"
       style="fill:#ffffff;stroke-width:0.264999;stroke-linecap:round;stroke-linejoin:round;paint-order:stroke markers fill"
       d="M 0.0712921,3.7048385 V 1.9725242 H 1.8036063 L 1.482449,2.2936815 C 1.5276851,3.3712522 1.4408411,3.8079159 2.9653998,4.1681147 1.0324699,4.1654797 1.3602884,3.8411649 0.390078,3.3860525 Z"
       sodipodi:nodetypes="ccccccc" />
    <path
       id="path9308"
       style="fill:#ffffff;stroke-width:0.264999;stroke-linecap:round;stroke-linejoin:round;paint-order:stroke markers fill"
       d="M 4.1643924,3.5628753 C 3.4438562,3.9376437 2.8594997,4.4447888 1.7971814,3.1831302 2.5998473,3.3082956 2.8595089,3.2792523 3.7016292,2.408128 3.6384633,2.7954998 3.608993,3.0596619 3.5069137,3.2920109 3.625671,3.537278 3.9296525,3.4966366 4.1643924,3.5628753 Z"
       sodipodi:nodetypes="ccccc" />
  </g>
</svg>
