<?xml version="1.0" encoding="UTF-8" standalone="no"?>
<!-- Created with Inkscape (http://www.inkscape.org/) -->

<svg
   width="16"
   height="16"
   viewBox="0 0 4.2333332 4.2333335"
   version="1.1"
   id="svg3149"
   inkscape:version="1.1.2 (0a00cf5339, 2022-02-04, custom)"
   sodipodi:docname="axis_right_h.svg"
   xmlns:inkscape="http://www.inkscape.org/namespaces/inkscape"
   xmlns:sodipodi="http://sodipodi.sourceforge.net/DTD/sodipodi-0.dtd"
   xmlns="http://www.w3.org/2000/svg"
   xmlns:svg="http://www.w3.org/2000/svg">
  <sodipodi:namedview
     id="namedview3151"
     pagecolor="#505050"
     bordercolor="#eeeeee"
     borderopacity="1"
     inkscape:pageshadow="0"
     inkscape:pageopacity="0"
     inkscape:pagecheckerboard="0"
     inkscape:document-units="mm"
     showgrid="false"
     units="px"
     width="16px"
     inkscape:zoom="16"
     inkscape:cx="11.78125"
     inkscape:cy="13.8125"
     inkscape:window-width="1916"
     inkscape:window-height="1033"
     inkscape:window-x="1920"
     inkscape:window-y="18"
     inkscape:window-maximized="1"
     inkscape:current-layer="layer1" />
  <defs
     id="defs3146" />
  <g
     inkscape:label="Layer 1"
     inkscape:groupmode="layer"
     id="layer1">
    <path
       id="path2491"
       style="fill:#ffffff;fill-opacity:1;stroke:none;stroke-width:8.00001;stroke-linecap:round;stroke-linejoin:round;paint-order:stroke markers fill"
       d="M 8.0546875 3.0605469 A 4.9999998 4.9999998 0 0 0 3.0546875 8.0605469 A 4.9999998 4.9999998 0 0 0 8.0546875 13.060547 A 4.9999998 4.9999998 0 0 0 13.054688 8.0605469 A 4.9999998 4.9999998 0 0 0 8.0546875 3.0605469 z M 5.2285156 4.1992188 L 8.6816406 4.1992188 C 9.5080289 4.1992188 10.145834 4.3843319 10.59375 4.7558594 C 11.045139 5.1239147 11.271484 5.6371533 11.271484 6.296875 C 11.271484 6.8420135 11.11046 7.3003475 10.791016 7.671875 C 10.475044 8.0434025 10.037543 8.2777779 9.4785156 8.375 L 11.5625 11.537109 L 10.416016 11.537109 L 8.5097656 8.4902344 L 6.2246094 8.4902344 L 6.2246094 11.537109 L 5.2285156 11.537109 L 5.2285156 4.1992188 z M 6.2246094 4.9960938 L 6.2246094 7.703125 L 8.625 7.703125 C 9.1493052 7.703125 9.5531686 7.5828991 9.8378906 7.3398438 C 10.126085 7.0933162 10.271484 6.7495656 10.271484 6.3085938 C 10.271484 5.8815107 10.125651 5.5562064 9.8339844 5.3339844 C 9.5457901 5.1082901 9.1291229 4.9960938 8.5839844 4.9960938 L 6.2246094 4.9960938 z "
       transform="scale(0.26458333)" />
    <path
       id="circle12885"
       style="fill:#ffffff;fill-opacity:1;stroke:none;stroke-width:2.11667;stroke-linecap:round;stroke-linejoin:round;paint-order:stroke markers fill"
       d="M 2.8360309,0.84025877 A 1.3758334,1.3758334 0 0 1 3.7403683,2.1326863 1.3758334,1.3758334 0 0 1 2.8329302,3.4256308 1.3229166,1.3229166 0 0 0 3.8778278,2.1326863 1.3229166,1.3229166 0 0 0 2.8360309,0.84025877 Z" />
    <path
       id="circle14218"
       style="fill:#ffffff;fill-opacity:1;stroke:none;stroke-width:2.11667;stroke-linecap:round;stroke-linejoin:round;paint-order:stroke markers fill"
       d="M 3.5216805,0.97151691 A 1.42875,1.42875 0 0 1 4.1180265,2.1326863 1.42875,1.42875 0 0 1 3.5232307,3.2923054 1.3229166,1.3229166 0 0 0 4.2115606,2.1326863 1.3229166,1.3229166 0 0 0 3.5216805,0.97151691 Z" />
    <path
       id="path14470"
       style="fill:#ffffff;fill-opacity:1;stroke:none;stroke-width:2.11667;stroke-linecap:round;stroke-linejoin:round;paint-order:stroke markers fill"
       d="M 1.3993179,3.4256308 A 1.3758334,1.3758334 0 0 1 0.49498053,2.1332033 1.3758334,1.3758334 0 0 1 1.4024186,0.84025877 1.3229166,1.3229166 0 0 0 0.35752103,2.1332033 1.3229166,1.3229166 0 0 0 1.3993179,3.4256308 Z" />
    <path
       id="path14472"
       style="fill:#ffffff;fill-opacity:1;stroke:none;stroke-width:2.11667;stroke-linecap:round;stroke-linejoin:round;paint-order:stroke markers fill"
       d="M 0.71366833,3.2943727 A 1.42875,1.42875 0 0 1 0.11732233,2.1332033 1.42875,1.42875 0 0 1 0.71211813,0.97358417 1.3229166,1.3229166 0 0 0 0.02378823,2.1332033 1.3229166,1.3229166 0 0 0 0.71366833,3.2943727 Z" />
  </g>
</svg>
