<?xml version="1.0" encoding="UTF-8" standalone="no"?>
<!-- Created with Inkscape (http://www.inkscape.org/) -->

<svg
   width="16"
   height="16"
   viewBox="0 0 4.2333332 4.2333335"
   version="1.1"
   id="svg3149"
   inkscape:version="1.1.2 (0a00cf5339, 2022-02-04, custom)"
   sodipodi:docname="axis_r2.svg"
   xmlns:inkscape="http://www.inkscape.org/namespaces/inkscape"
   xmlns:sodipodi="http://sodipodi.sourceforge.net/DTD/sodipodi-0.dtd"
   xmlns="http://www.w3.org/2000/svg"
   xmlns:svg="http://www.w3.org/2000/svg">
  <sodipodi:namedview
     id="namedview3151"
     pagecolor="#505050"
     bordercolor="#eeeeee"
     borderopacity="1"
     inkscape:pageshadow="0"
     inkscape:pageopacity="0"
     inkscape:pagecheckerboard="0"
     inkscape:document-units="mm"
     showgrid="false"
     units="px"
     width="16px"
     inkscape:zoom="32"
     inkscape:cx="9.296875"
     inkscape:cy="9.15625"
     inkscape:window-width="1916"
     inkscape:window-height="1033"
     inkscape:window-x="1920"
     inkscape:window-y="18"
     inkscape:window-maximized="1"
     inkscape:current-layer="layer1" />
  <defs
     id="defs3146" />
  <g
     inkscape:label="Layer 1"
     inkscape:groupmode="layer"
     id="layer1">
    <path
       id="rect18999"
       style="fill:#ffffff;stroke-width:8.00001;stroke-linecap:round;stroke-linejoin:round;paint-order:stroke markers fill"
       d="M 5.2539062 0.31835938 C 4.3507965 0.31949184 3.3544991 0.33682661 2.2558594 0.35546875 L 2.2558594 15.775391 L 14.025391 15.775391 C 14.025391 1.6995504 13.983968 0.30741219 5.2539062 0.31835938 z M 10.423828 6.0332031 C 10.978516 6.0332031 11.404296 6.1647131 11.701172 6.4277344 C 12.000651 6.6881514 12.150391 7.0592441 12.150391 7.5410156 C 12.150391 7.7545576 12.100912 7.9667966 12.001953 8.1777344 C 11.905599 8.3886722 11.761068 8.5996091 11.568359 8.8105469 C 11.375651 9.0214847 11.007162 9.3483066 10.462891 9.7910156 C 10.163411 10.035808 9.9251305 10.257161 9.7480469 10.455078 C 9.5709633 10.650391 9.4433595 10.839192 9.3652344 11.021484 L 12.236328 11.021484 L 12.236328 11.619141 L 8.5917969 11.619141 L 8.5917969 11.123047 C 8.7246096 10.818359 8.8860674 10.550131 9.0761719 10.318359 C 9.2688805 10.083984 9.4707028 9.8730472 9.6816406 9.6855469 C 9.8925784 9.4954424 10.100911 9.3196617 10.306641 9.1582031 C 10.514974 8.9967445 10.702474 8.8352867 10.869141 8.6738281 C 11.035808 8.5123695 11.169922 8.3430992 11.271484 8.1660156 C 11.375651 7.988932 11.427734 7.7884118 11.427734 7.5644531 C 11.427734 7.2623693 11.339193 7.027995 11.162109 6.8613281 C 10.985026 6.6946612 10.738933 6.6113281 10.423828 6.6113281 C 10.124349 6.6113281 9.8769534 6.6933591 9.6816406 6.8574219 C 9.488932 7.0188805 9.3756511 7.2467443 9.3417969 7.5410156 L 8.6230469 7.4746094 C 8.6751303 7.0345045 8.8613276 6.6842452 9.1816406 6.4238281 C 9.5045578 6.1634111 9.918619 6.0332031 10.423828 6.0332031 z M 3.0683594 6.1152344 L 5.6582031 6.1152344 C 6.2779957 6.1152344 6.7558589 6.2545569 7.0917969 6.5332031 C 7.4303391 6.8092452 7.5996094 7.1946607 7.5996094 7.6894531 C 7.5996094 8.0983079 7.4798181 8.4420569 7.2402344 8.7207031 C 7.0032548 8.9993494 6.6751308 9.1751301 6.2558594 9.2480469 L 7.8183594 11.619141 L 6.9589844 11.619141 L 5.5292969 9.3339844 L 3.8144531 9.3339844 L 3.8144531 11.619141 L 3.0683594 11.619141 L 3.0683594 6.1152344 z M 3.8144531 6.7128906 L 3.8144531 8.7441406 L 5.6152344 8.7441406 C 6.0084641 8.7441406 6.3118486 8.6529951 6.5253906 8.4707031 C 6.7415368 8.285807 6.8496094 8.0279953 6.8496094 7.6972656 C 6.8496094 7.3769526 6.7402347 7.1334638 6.5214844 6.9667969 C 6.3053382 6.7975258 5.9928392 6.7128906 5.5839844 6.7128906 L 3.8144531 6.7128906 z "
       transform="scale(0.26458333)" />
  </g>
</svg>
