<?xml version="1.0" encoding="UTF-8" standalone="no"?>
<!-- Created with Inkscape (http://www.inkscape.org/) -->

<svg
   width="16"
   height="16"
   viewBox="0 0 4.2333332 4.2333335"
   version="1.1"
   id="svg3149"
   inkscape:version="1.1.2 (0a00cf5339, 2022-02-04, custom)"
   sodipodi:docname="btn_R3.svg"
   xmlns:inkscape="http://www.inkscape.org/namespaces/inkscape"
   xmlns:sodipodi="http://sodipodi.sourceforge.net/DTD/sodipodi-0.dtd"
   xmlns="http://www.w3.org/2000/svg"
   xmlns:svg="http://www.w3.org/2000/svg">
  <sodipodi:namedview
     id="namedview3151"
     pagecolor="#505050"
     bordercolor="#eeeeee"
     borderopacity="1"
     inkscape:pageshadow="0"
     inkscape:pageopacity="0"
     inkscape:pagecheckerboard="0"
     inkscape:document-units="mm"
     showgrid="false"
     units="px"
     width="16px"
     inkscape:zoom="32"
     inkscape:cx="9.296875"
     inkscape:cy="9.15625"
     inkscape:window-width="1916"
     inkscape:window-height="1033"
     inkscape:window-x="1920"
     inkscape:window-y="18"
     inkscape:window-maximized="1"
     inkscape:current-layer="layer1" />
  <defs
     id="defs3146" />
  <g
     inkscape:label="Layer 1"
     inkscape:groupmode="layer"
     id="layer1">
    <path
       id="path29967"
       style="fill:#ffffff;fill-opacity:1;stroke:none;stroke-width:8.00001;stroke-linecap:round;stroke-linejoin:round;paint-order:stroke markers fill"
       d="M 8 0 A 7.9999996 7.9999996 0 0 0 0 8 A 7.9999996 7.9999996 0 0 0 8 16 A 7.9999996 7.9999996 0 0 0 16 8 A 7.9999996 7.9999996 0 0 0 8 0 z M 11.671875 3.9921875 C 12.407986 3.9921875 12.978516 4.1640628 13.384766 4.5078125 C 13.794488 4.84809 14 5.3244362 14 5.9355469 C 14 6.4042965 13.867404 6.7849395 13.603516 7.0800781 C 13.343099 7.3717446 12.96289 7.5696615 12.462891 7.6738281 L 12.462891 7.6953125 C 13.011501 7.7543402 13.438585 7.9390193 13.744141 8.2480469 C 14.049696 8.5570744 14.203125 8.9453129 14.203125 9.4140625 C 14.203125 10.091145 13.987196 10.614801 13.556641 10.986328 C 13.126085 11.357856 12.511501 11.544922 11.712891 11.544922 C 10.969836 11.544922 10.376085 11.378255 9.9316406 11.044922 C 9.4906687 10.708117 9.2298176 10.210937 9.1464844 9.5546875 L 10.115234 9.4667969 C 10.240234 10.334852 10.771919 10.767578 11.712891 10.767578 C 12.185112 10.767578 12.554905 10.652561 12.822266 10.419922 C 13.093099 10.187283 13.228516 9.8411455 13.228516 9.3828125 C 13.228516 8.9835072 13.074653 8.6733939 12.765625 8.4511719 C 12.46007 8.2254776 12.017361 8.1113281 11.4375 8.1113281 L 10.90625 8.1113281 L 10.90625 7.2988281 L 11.416016 7.2988281 C 11.929904 7.2988281 12.328125 7.1890189 12.609375 6.9667969 C 12.894097 6.7411026 13.037109 6.4290362 13.037109 6.0332031 C 13.037109 5.6408423 12.920139 5.3331161 12.6875 5.1074219 C 12.458334 4.8782554 12.11697 4.7636719 11.662109 4.7636719 C 11.248915 4.7636719 10.913194 4.8682727 10.65625 5.0800781 C 10.402778 5.2918835 10.254557 5.5911461 10.212891 5.9765625 L 9.2714844 5.9042969 C 9.3409288 5.3036029 9.588542 4.8348522 10.015625 4.4980469 C 10.44618 4.1612416 10.998264 3.9921875 11.671875 3.9921875 z M 1.9121094 4.1015625 L 5.3652344 4.1015625 C 6.1916226 4.1015625 6.8274743 4.2866756 7.2753906 4.6582031 C 7.7267792 5.0262584 7.953125 5.5414502 7.953125 6.2011719 C 7.953125 6.7463104 7.7940536 7.2046444 7.4746094 7.5761719 C 7.1586374 7.9476994 6.7211367 8.1820747 6.1621094 8.2792969 L 8.2441406 11.439453 L 7.0996094 11.439453 L 5.1933594 8.3925781 L 2.90625 8.3925781 L 2.90625 11.439453 L 1.9121094 11.439453 L 1.9121094 4.1015625 z M 2.90625 4.8984375 L 2.90625 7.6074219 L 5.3066406 7.6074219 C 5.8309458 7.6074219 6.2367624 7.4852429 6.5214844 7.2421875 C 6.8096786 6.9956599 6.953125 6.6519094 6.953125 6.2109375 C 6.953125 5.7838545 6.8072914 5.4585502 6.515625 5.2363281 C 6.2274308 5.0106339 5.8107635 4.8984375 5.265625 4.8984375 L 2.90625 4.8984375 z "
       transform="scale(0.26458333)" />
  </g>
</svg>
