<?xml version="1.0" encoding="UTF-8" standalone="no"?>
<!-- Created with Inkscape (http://www.inkscape.org/) -->

<svg
   width="16"
   height="16"
   viewBox="0 0 4.2333332 4.2333335"
   version="1.1"
   id="svg3149"
   inkscape:version="1.1.2 (0a00cf5339, 2022-02-04, custom)"
   sodipodi:docname="btn_L3.svg"
   xmlns:inkscape="http://www.inkscape.org/namespaces/inkscape"
   xmlns:sodipodi="http://sodipodi.sourceforge.net/DTD/sodipodi-0.dtd"
   xmlns="http://www.w3.org/2000/svg"
   xmlns:svg="http://www.w3.org/2000/svg">
  <sodipodi:namedview
     id="namedview3151"
     pagecolor="#505050"
     bordercolor="#eeeeee"
     borderopacity="1"
     inkscape:pageshadow="0"
     inkscape:pageopacity="0"
     inkscape:pagecheckerboard="0"
     inkscape:document-units="mm"
     showgrid="false"
     units="px"
     width="16px"
     inkscape:zoom="32"
     inkscape:cx="9.296875"
     inkscape:cy="9.15625"
     inkscape:window-width="1916"
     inkscape:window-height="1033"
     inkscape:window-x="1920"
     inkscape:window-y="18"
     inkscape:window-maximized="1"
     inkscape:current-layer="layer1" />
  <defs
     id="defs3146" />
  <g
     inkscape:label="Layer 1"
     inkscape:groupmode="layer"
     id="layer1">
    <path
       id="path29967"
       style="fill:#ffffff;fill-opacity:1;stroke:none;stroke-width:8.00001;stroke-linecap:round;stroke-linejoin:round;paint-order:stroke markers fill"
       d="M 8 0 A 7.9999996 7.9999996 0 0 0 0 8 A 7.9999996 7.9999996 0 0 0 8 16 A 7.9999996 7.9999996 0 0 0 16 8 A 7.9999996 7.9999996 0 0 0 8 0 z M 10.691406 3.9921875 C 11.427517 3.9921875 11.998047 4.1640628 12.404297 4.5078125 C 12.814019 4.84809 13.019531 5.3244362 13.019531 5.9355469 C 13.019531 6.4042965 12.886936 6.7849395 12.623047 7.0800781 C 12.36263 7.3717446 11.982421 7.5696615 11.482422 7.6738281 L 11.482422 7.6953125 C 12.031033 7.7543402 12.458117 7.9390193 12.763672 8.2480469 C 13.069227 8.5570744 13.222656 8.9453129 13.222656 9.4140625 C 13.222656 10.091145 13.006727 10.614801 12.576172 10.986328 C 12.145617 11.357856 11.531032 11.544922 10.732422 11.544922 C 9.9893669 11.544922 9.395616 11.378255 8.9511719 11.044922 C 8.5102 10.708117 8.2473958 10.210937 8.1640625 9.5546875 L 9.1328125 9.4667969 C 9.2578124 10.334852 9.7914504 10.767578 10.732422 10.767578 C 11.204644 10.767578 11.574436 10.652561 11.841797 10.419922 C 12.11263 10.187283 12.248047 9.8411455 12.248047 9.3828125 C 12.248047 8.9835072 12.094184 8.6733939 11.785156 8.4511719 C 11.479601 8.2254776 11.036892 8.1113281 10.457031 8.1113281 L 9.9257812 8.1113281 L 9.9257812 7.2988281 L 10.435547 7.2988281 C 10.949435 7.2988281 11.347656 7.1890189 11.628906 6.9667969 C 11.913628 6.7411026 12.054688 6.4290362 12.054688 6.0332031 C 12.054688 5.6408423 11.93967 5.3331161 11.707031 5.1074219 C 11.477865 4.8782554 11.134548 4.7636719 10.679688 4.7636719 C 10.266493 4.7636719 9.9327255 4.8682727 9.6757812 5.0800781 C 9.4223092 5.2918835 9.2740885 5.5911461 9.2324219 5.9765625 L 8.2890625 5.9042969 C 8.3585069 5.3036029 8.6080732 4.8348522 9.0351562 4.4980469 C 9.4657115 4.1612416 10.017796 3.9921875 10.691406 3.9921875 z M 2.7011719 4.1015625 L 3.6953125 4.1015625 L 3.6953125 10.626953 L 7.4042969 10.626953 L 7.4042969 11.439453 L 2.7011719 11.439453 L 2.7011719 4.1015625 z "
       transform="scale(0.26458333)" />
  </g>
</svg>
