<?xml version="1.0" encoding="UTF-8" standalone="no"?>
<!-- Created with Inkscape (http://www.inkscape.org/) -->

<svg
   width="16"
   height="16"
   viewBox="0 0 4.2333332 4.2333335"
   version="1.1"
   id="svg3149"
   inkscape:version="1.1.2 (0a00cf5339, 2022-02-04, custom)"
   sodipodi:docname="btn_l1.svg"
   xmlns:inkscape="http://www.inkscape.org/namespaces/inkscape"
   xmlns:sodipodi="http://sodipodi.sourceforge.net/DTD/sodipodi-0.dtd"
   xmlns="http://www.w3.org/2000/svg"
   xmlns:svg="http://www.w3.org/2000/svg">
  <sodipodi:namedview
     id="namedview3151"
     pagecolor="#505050"
     bordercolor="#eeeeee"
     borderopacity="1"
     inkscape:pageshadow="0"
     inkscape:pageopacity="0"
     inkscape:pagecheckerboard="0"
     inkscape:document-units="mm"
     showgrid="false"
     units="px"
     width="16px"
     inkscape:zoom="32"
     inkscape:cx="9.296875"
     inkscape:cy="9.15625"
     inkscape:window-width="1916"
     inkscape:window-height="1033"
     inkscape:window-x="1920"
     inkscape:window-y="18"
     inkscape:window-maximized="1"
     inkscape:current-layer="layer1" />
  <defs
     id="defs3146" />
  <g
     inkscape:label="Layer 1"
     inkscape:groupmode="layer"
     id="layer1">
    <path
       id="rect25083"
       style="fill:#ffffff;fill-opacity:1;stroke:none;stroke-width:8.00001;stroke-linecap:round;stroke-linejoin:round;paint-order:stroke markers fill"
       d="M 2.2617188 2.4726562 C 1.1537188 2.4726562 0.26171875 3.3646563 0.26171875 4.4726562 L 0.26171875 11.015625 C 0.26171875 12.123625 1.1537188 13.015625 2.2617188 13.015625 L 13.800781 13.015625 C 14.908781 13.015625 15.800781 12.123625 15.800781 11.015625 L 15.800781 4.4726562 C 15.800781 3.3646563 14.908781 2.4726562 13.800781 2.4726562 L 2.2617188 2.4726562 z M 4.1777344 4.8710938 L 4.9238281 4.8710938 L 4.9238281 9.765625 L 7.7050781 9.765625 L 7.7050781 10.375 L 4.1777344 10.375 L 4.1777344 4.8710938 z M 10.041016 4.8710938 L 10.689453 4.8710938 L 10.689453 9.7773438 L 12.029297 9.7773438 L 12.029297 10.375 L 8.5800781 10.375 L 8.5800781 9.7773438 L 9.9824219 9.7773438 L 9.9824219 5.5429688 L 8.7402344 6.4296875 L 8.7402344 5.765625 L 10.041016 4.8710938 z "
       transform="scale(0.26458333)" />
  </g>
</svg>
